<?xml version="1.0" encoding="UTF-8"?>
<svg version="1.1" xmlns="http://www.w3.org/2000/svg" width="264" height="238">
<path d="M0 0 C3.7778435 0.95095687 7.22500132 2.35572545 10.76171875 3.95483398 C11.47231949 4.269758 12.18292023 4.58468201 12.91505432 4.90914917 C15.18067668 5.91533158 17.44183499 6.9311462 19.703125 7.94702148 C21.18658078 8.60647926 22.67030282 9.26533841 24.15429688 9.92358398 C32.4702872 13.6224965 40.73277689 17.41951758 48.94873047 21.33569336 C52.23607671 22.80878065 55.55756062 24.00026127 58.953125 25.19702148 C68.58123409 30.43045992 71.84155749 41.97794196 75.89746094 51.58666992 C77.53464576 55.45818549 79.25931017 59.28538322 80.99755859 63.11230469 C82.10586492 65.55782213 83.1937614 68.01172576 84.28125 70.46655273 C86.43137727 75.26467655 88.83509187 79.90083949 91.3671875 84.50952148 C92.42907445 87.24272615 92.226122 88.10672666 91.265625 90.82202148 C90.08569336 92.35839844 90.08569336 92.35839844 88.60546875 93.81030273 C88.06341797 94.3478418 87.52136719 94.88538086 86.96289062 95.43920898 C86.38216797 95.99866211 85.80144531 96.55811523 85.203125 97.13452148 C84.60822266 97.7184668 84.01332031 98.30241211 83.40039062 98.90405273 C79.85680399 102.3589533 76.22112815 105.66089516 72.44921875 108.86499023 C69.30429841 111.68360399 66.31871117 114.65365553 63.328125 117.63452148 C62.74740234 118.21073242 62.16667969 118.78694336 61.56835938 119.38061523 C58.54786384 122.32091752 58.54786384 122.32091752 56.265625 125.82202148 C56.8225 126.04889648 57.379375 126.27577148 57.953125 126.50952148 C60.87635509 128.16865208 62.94019462 130.437461 65.265625 132.82202148 C66.37587341 133.93971288 67.48727568 135.05625887 68.59960938 136.171875 C69.20373657 136.77922989 69.80786377 137.38658478 70.43029785 138.01234436 C73.15595821 140.7514364 75.88431644 143.48783463 78.61279297 146.22412109 C80.04890978 147.66528662 81.48413057 149.10734558 82.91845703 150.55029297 C85.00055669 152.64455053 87.08589462 154.73553641 89.171875 156.82592773 C89.80847046 157.46768448 90.44506592 158.10944122 91.10095215 158.77064514 C93.72415392 161.39417488 96.25460405 163.81359763 99.20898438 166.07177734 C99.88767578 166.64935791 100.56636719 167.22693848 101.265625 167.82202148 C101.265625 168.81202148 101.265625 169.80202148 101.265625 170.82202148 C100.66318466 170.75573547 100.06074432 170.68944946 99.44004822 170.62115479 C91.69464364 169.76928235 83.94893477 168.92020104 76.203125 168.07202148 C74.96276489 167.93607574 73.72240479 167.80013 72.44445801 167.6600647 C59.64516601 166.25853042 46.84564568 164.86392685 34.03515625 163.56811523 C33.12189072 163.47565521 32.20862518 163.38319519 31.26768494 163.28793335 C27.0487216 162.86216972 22.82928544 162.44185971 18.60913086 162.02807617 C17.12483356 161.88000105 15.64053972 161.73189134 14.15625 161.58374023 C12.25407715 161.39751099 12.25407715 161.39751099 10.31347656 161.20751953 C7.265625 160.82202148 7.265625 160.82202148 4.265625 159.82202148 C3.44105688 156.79962683 2.81866706 153.89597157 2.265625 150.82202148 C2.07436035 149.92515625 1.8830957 149.02829102 1.68603516 148.10424805 C-1.94807224 130.77513509 -1.94807224 130.77513509 0.7265625 124.26733398 C3.04827317 121.45684212 5.4927227 119.1847078 8.265625 116.82202148 C9.99560464 114.94591988 11.70407348 113.04975796 13.390625 111.13452148 C14.23109375 110.22057617 15.0715625 109.30663086 15.9375 108.36499023 C17.87256762 106.25135094 19.76770797 104.115423 21.640625 101.94702148 C25.30087993 97.72901342 29.10350617 93.64525659 32.91552734 89.56469727 C34.37678264 87.99373956 35.82128637 86.40852331 37.265625 84.82202148 C37.76545898 84.29640625 38.26529297 83.77079102 38.78027344 83.22924805 C41.45205903 80.41604565 41.45205903 80.41604565 42.3515625 76.78295898 C40.82798415 74.03174916 38.95382416 71.82262935 36.890625 69.44702148 C35.97342249 68.37697958 35.05812844 67.30529949 34.14453125 66.23217773 C33.66902832 65.6741748 33.19352539 65.11617188 32.70361328 64.54125977 C30.33812507 61.7131158 28.08671051 58.79821037 25.828125 55.88452148 C21.68331087 50.55368237 17.38574356 45.3809195 12.99316406 40.25317383 C9.85637759 36.57290751 6.9682454 32.82935518 4.265625 28.82202148 C0.53332308 29.40280387 -2.20608125 30.43897175 -5.46484375 32.33374023 C-6.35107422 32.84485352 -7.23730469 33.3559668 -8.15039062 33.88256836 C-9.06498047 34.41946289 -9.97957031 34.95635742 -10.921875 35.50952148 C-11.81712891 36.02708008 -12.71238281 36.54463867 -13.63476562 37.07788086 C-19.04988361 40.21747634 -24.40984534 43.43616114 -29.73168945 46.73144531 C-31.734375 47.82202148 -31.734375 47.82202148 -33.734375 47.82202148 C-33.981875 49.08014648 -34.229375 50.33827148 -34.484375 51.63452148 C-35.5134253 56.38918453 -37.17025775 60.75539181 -39.02734375 65.24389648 C-39.89870573 68.42123851 -39.84719471 69.70522156 -38.734375 72.82202148 C-37.0285906 75.7015312 -35.11908558 78.41426102 -33.171875 81.13452148 C-32.65173828 81.87508789 -32.13160156 82.6156543 -31.59570312 83.37866211 C-30.31594382 85.19850332 -29.02875282 87.01256333 -27.734375 88.82202148 C-25.12984325 88.17763216 -22.5257459 87.53157109 -19.921875 86.88452148 C-18.81489258 86.61091797 -18.81489258 86.61091797 -17.68554688 86.33178711 C-14.66376516 85.57975999 -11.68980782 84.80716576 -8.734375 83.82202148 C-8.64873291 83.22663574 -8.56309082 82.63125 -8.47485352 82.01782227 C-8.08576247 79.32702519 -7.69138499 76.63702916 -7.296875 73.94702148 C-7.09481445 72.54129883 -7.09481445 72.54129883 -6.88867188 71.10717773 C-6.75654297 70.2112793 -6.62441406 69.31538086 -6.48828125 68.39233398 C-6.36783447 67.56491699 -6.2473877 66.7375 -6.12329102 65.88500977 C-5.734375 63.82202148 -5.734375 63.82202148 -4.734375 61.82202148 C-3.03198242 61.2277832 -3.03198242 61.2277832 -0.83984375 60.75170898 C-0.04900391 60.57768555 0.74183594 60.40366211 1.55664062 60.22436523 C2.38873047 60.0503418 3.22082031 59.87631836 4.078125 59.69702148 C4.89861328 59.51526367 5.71910156 59.33350586 6.56445312 59.14624023 C10.28208381 58.34422096 13.42795781 57.82202148 17.265625 57.82202148 C16.85281484 66.29174722 15.9642557 74.61910657 14.765625 83.00952148 C14.56972778 84.39046997 14.56972778 84.39046997 14.36987305 85.79931641 C13.85974201 89.27718887 13.37994435 92.47906344 12.265625 95.82202148 C10.07139038 97.12504036 7.94136524 98.23743459 5.640625 99.32202148 C4.60252686 99.82608521 4.60252686 99.82608521 3.54345703 100.34033203 C1.12261968 101.51181526 -1.30563694 102.66701154 -3.734375 103.82202148 C-5.7242081 104.77592773 -7.71378 105.73037898 -9.703125 106.68530273 C-14.58033723 109.02401972 -19.46307297 111.35089724 -24.34863281 113.67211914 C-26.34345984 114.63360454 -28.31889929 115.63517845 -30.2890625 116.64624023 C-32.734375 117.82202148 -32.734375 117.82202148 -34.734375 117.82202148 C-34.84322021 118.66152344 -34.95206543 119.50102539 -35.06420898 120.3659668 C-36.26123359 129.20234018 -37.88820712 137.85995107 -39.796875 146.57202148 C-40.2000293 148.4553418 -40.2000293 148.4553418 -40.61132812 150.37670898 C-42.59693452 159.54714053 -42.59693452 159.54714053 -43.734375 161.82202148 C-46.08837891 162.55224609 -46.08837891 162.55224609 -49.2109375 163.22436523 C-50.35046875 163.4736377 -51.49 163.72291016 -52.6640625 163.97973633 C-53.88351563 164.23706543 -55.10296875 164.49439453 -56.359375 164.75952148 C-57.5865625 165.02458496 -58.81375 165.28964844 -60.078125 165.56274414 C-63.62815435 166.32594416 -67.18058158 167.07656877 -70.734375 167.82202148 C-72.07000488 168.10408447 -72.07000488 168.10408447 -73.43261719 168.3918457 C-84.99355332 170.82202148 -84.99355332 170.82202148 -88.734375 170.82202148 C-88.13175955 166.65146418 -86.7170585 163.60440213 -84.6640625 159.93920898 C-84.19425209 159.09366959 -84.19425209 159.09366959 -83.71495056 158.23104858 C-82.68605913 156.38277627 -81.64777505 154.53996562 -80.609375 152.69702148 C-79.88956866 151.4079959 -79.17042058 150.11860254 -78.4519043 148.82885742 C-76.96367999 146.15962555 -75.47182972 143.49247087 -73.97705078 140.8269043 C-71.81173016 136.96373155 -69.65947216 133.09342046 -67.51171875 129.22045898 C-67.00738312 128.31111099 -67.00738312 128.31111099 -66.49285889 127.38339233 C-65.83125691 126.19044165 -65.16967608 124.99747924 -64.50811768 123.80450439 C-62.98784405 121.06445952 -61.46462685 118.32605392 -59.94140625 115.58764648 C-59.40080566 114.60602539 -58.86020508 113.6244043 -58.30322266 112.61303711 C-57.27881054 110.79058467 -56.22222604 108.98574537 -55.13037109 107.20288086 C-54.65293457 106.41204102 -54.17549805 105.62120117 -53.68359375 104.80639648 C-53.25780029 104.12802734 -52.83200684 103.4496582 -52.39331055 102.75073242 C-51.50071663 100.79267713 -51.50071663 100.79267713 -52.47973633 98.73706055 C-53.8027596 96.64775946 -53.8027596 96.64775946 -55.859375 94.19702148 C-57.734375 91.82202148 -57.734375 91.82202148 -57.734375 89.82202148 C-58.394375 89.82202148 -59.054375 89.82202148 -59.734375 89.82202148 C-63.54589999 86.6745548 -65.89874061 83.40958235 -67.734375 78.82202148 C-67.9372126 72.17942204 -65.62022022 65.63583608 -63.796875 59.32202148 C-63.33066828 57.56803415 -62.86903564 55.8128243 -62.41210938 54.05639648 C-58.1355293 37.80638339 -58.1355293 37.80638339 -52.046875 33.75952148 C-50.84427517 32.95077972 -49.64247701 32.14084485 -48.44140625 31.32983398 C-47.82217285 30.91378906 -47.20293945 30.49774414 -46.56494141 30.0690918 C-43.74638869 28.14895746 -40.994136 26.13760024 -38.234375 24.13452148 C-31.31714146 19.14563182 -24.22065796 14.43209145 -17.10546875 9.73144531 C-16.25210938 9.16707764 -15.39875 8.60270996 -14.51953125 8.02124023 C-13.28807373 7.21372314 -13.28807373 7.21372314 -12.03173828 6.38989258 C-9.93101634 4.95622241 -7.96943671 3.42367395 -5.98046875 1.84155273 C-2.734375 -0.17797852 -2.734375 -0.17797852 0 0 Z " fill="#010101" transform="translate(127.734375,32.177978515625)"/>
<path d="M0 0 C4.5410664 1.38754807 6.12996688 3.30995742 9 7 C10.09599109 7.98208982 11.21355884 8.94028142 12.34375 9.8828125 C18.4460729 15.1523413 24.0248952 20.95566818 29.6875 26.6875 C31.89677908 28.9235312 34.10946713 31.15610937 36.32421875 33.38671875 C36.82016037 33.89095871 37.31610199 34.39519867 37.82707214 34.91471863 C40.07749264 37.18081134 42.3058462 39.23177141 44.85473633 41.16333008 C45.56267334 41.76943115 46.27061035 42.37553223 47 43 C47 43.99 47 44.98 47 46 C45.68 45.67 44.36 45.34 43 45 C43 44.34 43 43.68 43 43 C41.98292969 42.73832031 40.96585938 42.47664063 39.91796875 42.20703125 C36.12870307 41.11964378 32.81213727 39.51765745 29.3125 37.6875 C20.26242646 33.02787927 11.01629688 28.80052061 1.76098633 24.5690918 C-3.97984871 21.92975116 -9.59169155 19.2719869 -15 16 C-13.66198588 12.9350908 -12.29092019 11.14639067 -9.6875 9.0625 C-6.59856567 6.52170642 -3.78608068 3.86802423 -1 1 C-0.67 0.67 -0.34 0.34 0 0 Z " fill="#505051" transform="translate(182,157)"/>
<path d="M0 0 C0 0.66 0 1.32 0 2 C-1.32 2.33 -2.64 2.66 -4 3 C-4 3.66 -4 4.32 -4 5 C-8.38461538 8 -8.38461538 8 -11 8 C-11 8.66 -11 9.32 -11 10 C-12.86328125 11.40234375 -12.86328125 11.40234375 -15.3125 12.9375 C-18.62596766 15.01409835 -18.62596766 15.01409835 -21.5546875 17.57421875 C-23.19985384 19.19715311 -24.7084715 19.93710959 -26.8125 20.875 C-30.78478241 22.76969824 -33.70574047 25.09791423 -37 28 C-37.66 28.33 -38.32 28.66 -39 29 C-39.78293506 31.75356784 -40.45552861 34.45747004 -41.0625 37.25 C-41.32256836 38.39662109 -41.32256836 38.39662109 -41.58789062 39.56640625 C-42.2939479 42.6990282 -42.96775333 45.82771709 -43.55859375 48.984375 C-44 51 -44 51 -45 52 C-45.56678441 54.78987144 -46.08353803 57.5699787 -46.5625 60.375 C-46.70107422 61.15617187 -46.83964844 61.93734375 -46.98242188 62.7421875 C-47.53022989 65.89410752 -48 68.79119917 -48 72 C-49.82169493 69.77435429 -51.01599223 68.00744672 -50.96923828 65.06213379 C-50.59734142 62.70309648 -50.1102785 60.40276143 -49.5625 58.078125 C-49.36712646 57.218703 -49.17175293 56.35928101 -48.97045898 55.47381592 C-48.5472901 53.65573107 -48.11283582 51.84024135 -47.66796875 50.02734375 C-47.00779779 47.28242239 -46.42512509 44.52814543 -45.84375 41.765625 C-43.88652232 33.25794868 -42.22102789 26.44953092 -34.56640625 21.55078125 C-32.39936382 20.327803 -30.21240491 19.13886489 -28 18 C-26.67605725 17.10117375 -25.36765379 16.17812695 -24.08984375 15.21484375 C-3.02915952 0 -3.02915952 0 0 0 Z " fill="#1C1B1C" transform="translate(111,43)"/>
<path d="M0 0 C0.81789933 2.31480941 1.17775921 3.53568906 0.28515625 5.8671875 C-0.32005859 6.86105469 -0.32005859 6.86105469 -0.9375 7.875 C-1.39898437 8.65488281 -1.86046875 9.43476563 -2.3359375 10.23828125 C-2.88507812 11.14964844 -3.43421875 12.06101563 -4 13 C-5.35967686 15.35121986 -6.71440932 17.70467527 -8.0625 20.0625 C-8.40788818 20.66384766 -8.75327637 21.26519531 -9.10913086 21.88476562 C-11.5697573 26.18747463 -13.85564934 30.53260279 -16 35 C-16.66 35 -17.32 35 -18 35 C-18.185625 35.86431641 -18.185625 35.86431641 -18.375 36.74609375 C-19.01484803 39.0535457 -19.89027909 40.94505458 -21 43.0625 C-22.21973475 45.39883016 -23.16101823 47.4830547 -24 50 C-24.66 50 -25.32 50 -26 50 C-25.39579174 45.68101129 -23.83927051 42.52261379 -21.71875 38.73046875 C-21.38891113 38.1362915 -21.05907227 37.54211426 -20.71923828 36.92993164 C-19.65257062 35.01213019 -18.57646493 33.09981639 -17.5 31.1875 C-16.76830298 29.87637991 -16.03718421 28.56493695 -15.30664062 27.25317383 C-13.53017063 24.06711029 -11.74612654 20.88537918 -9.95849609 17.70556641 C-8.61541687 15.31566537 -7.276641 12.92335941 -5.9375 10.53125 C-3.966817 7.01598779 -1.98752173 3.5057675 0 0 Z " fill="#151515" transform="translate(65,153)"/>
<path d="M0 0 C1.61823991 1.37722546 3.23479109 2.75647448 4.84375 4.14453125 C6.37718047 5.46405928 7.91986743 6.7728633 9.46875 8.07421875 C10.2834375 8.77160156 11.098125 9.46898437 11.9375 10.1875 C12.70964844 10.84105469 13.48179687 11.49460938 14.27734375 12.16796875 C16 14 16 14 16 17 C14.68 16.67 13.36 16.34 12 16 C12 15.34 12 14.68 12 14 C11.01 13.7525 10.02 13.505 9 13.25 C4.71904804 12.04187859 0.90940785 10.09178706 -3 8 C-2.505 7.236875 -2.01 6.47375 -1.5 5.6875 C0.24368308 3.07636249 0.24368308 3.07636249 0 0 Z " fill="#4E4E4E" transform="translate(213,186)"/>
<path d="M0 0 C0 0.66 0 1.32 0 2 C-0.62261719 2.29390625 -1.24523437 2.5878125 -1.88671875 2.890625 C-10.04284972 6.84924924 -17.86970833 11.29576634 -25.69995117 15.86035156 C-26.57111572 16.3653418 -27.44228027 16.87033203 -28.33984375 17.390625 C-29.11706787 17.84469727 -29.89429199 18.29876953 -30.69506836 18.76660156 C-33.07502523 20.04014696 -35.47756954 21.04422553 -38 22 C-38 21.34 -38 20.68 -38 20 C-37.34 20 -36.68 20 -36 20 C-35.67 19.01 -35.34 18.02 -35 17 C-33.01737296 16.28331704 -31.01292639 15.62655549 -29 15 C-26.68338286 13.79416412 -24.43648012 12.56836766 -22.1875 11.25 C-21.27327271 10.72200806 -21.27327271 10.72200806 -20.34057617 10.18334961 C-16.02957443 7.66940525 -11.85584441 4.99635736 -7.76953125 2.12890625 C-5.11235887 0.43371239 -3.14541088 0 0 0 Z " fill="#1D1D1E" transform="translate(132,58)"/>
<path d="M0 0 C3.17405728 1.25530331 6.27646754 2.63183788 9.375 4.0625 C10.20644531 4.43955078 11.03789062 4.81660156 11.89453125 5.20507812 C13.93265588 6.13043356 15.9675867 7.0621837 18 8 C17.67 8.66 17.34 9.32 17 10 C12.75397354 8.68575371 8.95437084 7.01753614 5 5 C0.91940532 3.10041282 -1.46745963 2 -6 2 C-6.66 2 -7.32 2 -8 2 C-8.33 2.99 -8.66 3.98 -9 5 C-11 5.66666667 -13 6.33333333 -15 7 C-15.33 7.99 -15.66 8.98 -16 10 C-17.32 9.67 -18.64 9.34 -20 9 C-17.80621611 7.29005064 -15.5982809 5.60831573 -13.375 3.9375 C-12.75753906 3.45216797 -12.14007813 2.96683594 -11.50390625 2.46679688 C-7.34268158 -0.62126986 -5.16981157 -1.75773593 0 0 Z " fill="#141415" transform="translate(131,33)"/>
<path d="M0 0 C4.98624923 1.30242617 9.5388877 3.01146047 14.1875 5.25 C14.82953369 5.55429932 15.47156738 5.85859863 16.13305664 6.17211914 C22.13141164 9.02865509 28.0776637 11.98920333 34 15 C32.375 15.6875 32.375 15.6875 30 16 C27.3828125 14.84765625 27.3828125 14.84765625 24 13 C22.39904546 12.25687036 20.79167147 11.5274851 19.1796875 10.80859375 C18.31472656 10.42123047 17.44976562 10.03386719 16.55859375 9.63476562 C15.67300781 9.23966797 14.78742188 8.84457031 13.875 8.4375 C12.10121393 7.64531127 10.32776371 6.85237002 8.5546875 6.05859375 C7.38655518 5.53736938 7.38655518 5.53736938 6.19482422 5.00561523 C4.10510086 4.04815467 2.04921763 3.04094189 0 2 C0 1.34 0 0.68 0 0 Z " fill="#141414" transform="translate(158,46)"/>
<path d="M0 0 C0 0.66 0 1.32 0 2 C-1.32 2.33 -2.64 2.66 -4 3 C-4 3.66 -4 4.32 -4 5 C-8.38461538 8 -8.38461538 8 -11 8 C-11 8.66 -11 9.32 -11 10 C-15.50540116 13.68441695 -20.33822218 16.5482621 -26 18 C-21.65086045 13.23836474 -16.6389873 9.78799669 -11.3125 6.1875 C-10.44560547 5.59001953 -9.57871094 4.99253906 -8.68554688 4.37695312 C-2.25767857 0 -2.25767857 0 0 0 Z " fill="#232323" transform="translate(111,43)"/>
<path d="M0 0 C-0.33 1.32 -0.66 2.64 -1 4 C-1 3.34 -1 2.68 -1 2 C-1.9075 2.28875 -2.815 2.5775 -3.75 2.875 C-9.0668576 4.40976302 -14.53953576 5.15716972 -20 6 C-20.66 7.98 -21.32 9.96 -22 12 C-22.33 12 -22.66 12 -23 12 C-23.125 6.25 -23.125 6.25 -22 4 C-20.29760742 3.40576172 -20.29760742 3.40576172 -18.10546875 2.9296875 C-17.31462891 2.75566406 -16.52378906 2.58164063 -15.70898438 2.40234375 C-14.87689453 2.22832031 -14.04480469 2.05429688 -13.1875 1.875 C-12.36701172 1.69324219 -11.54652344 1.51148437 -10.70117188 1.32421875 C-6.98354119 0.52219948 -3.83766719 0 0 0 Z " fill="#1E1E1F" transform="translate(145,90)"/>
<path d="M0 0 C0.99 0.33 1.98 0.66 3 1 C3 1.66 3 2.32 3 3 C5.16666667 2.16666667 5.16666667 2.16666667 6 0 C7.17539996 0.92652701 8.34010577 1.86663387 9.5 2.8125 C10.1496875 3.33457031 10.799375 3.85664063 11.46875 4.39453125 C13 6 13 6 13 9 C11.68 8.67 10.36 8.34 9 8 C9 7.34 9 6.68 9 6 C7.39125 5.5978125 7.39125 5.5978125 5.75 5.1875 C2.43491072 4.13772173 0.56122354 3.25387672 -2 1 C-1.34 0.67 -0.68 0.34 0 0 Z " fill="#424243" transform="translate(216,194)"/>
<path d="M0 0 C5.86487447 3.45877212 10.30117181 8.11321868 15 13 C14.67 13.99 14.34 14.98 14 16 C12.33333333 14.33333333 10.66666667 12.66666667 9 11 C7.8553125 9.9171875 7.8553125 9.9171875 6.6875 8.8125 C5 7 5 7 5 5 C2.525 4.01 2.525 4.01 0 3 C0 2.01 0 1.02 0 0 Z " fill="#434245" transform="translate(189,163)"/>
<path d="M0 0 C0.66 0.33 1.32 0.66 2 1 C1.34 2.65 0.68 4.3 0 6 C-0.66 6 -1.32 6 -2 6 C-2.25523437 6.58265625 -2.51046875 7.1653125 -2.7734375 7.765625 C-4.11741087 10.21388223 -5.61810296 11.81743248 -7.625 13.75 C-8.57246094 14.67039062 -8.57246094 14.67039062 -9.5390625 15.609375 C-10.02117187 16.06828125 -10.50328125 16.5271875 -11 17 C-11 12.87960726 -8.77938437 11.29472143 -6.0625 8.5 C-2.32950519 4.72564516 -2.32950519 4.72564516 0 0 Z " fill="#111111" transform="translate(171,108)"/>
<path d="M0 0 C0.33 0 0.66 0 1 0 C0.47424542 5.03382044 -0.1677536 10.00652158 -1 15 C-1 15.99 -1 16.98 -1 18 C-3.21070374 15.04509896 -4.07023311 13.6588535 -3.671875 9.921875 C-3.36765625 8.87515625 -3.0634375 7.8284375 -2.75 6.75 C-2.45609375 5.69296875 -2.1621875 4.6359375 -1.859375 3.546875 C-1 1 -1 1 0 0 Z " fill="#151415" transform="translate(64,97)"/>
<path d="M0 0 C2.64 0.99 5.28 1.98 8 3 C8 3.66 8 4.32 8 5 C0.57142857 5.28571429 0.57142857 5.28571429 -3 3 C-2.01 2.67 -1.02 2.34 0 2 C0 1.34 0 0.68 0 0 Z " fill="#0B0B0D" transform="translate(217,197)"/>
<path d="M0 0 C2.86207152 1.28299758 5.0245088 2.530636 7 5 C7 5.99 7 6.98 7 8 C7.66 8 8.32 8 9 8 C10.6875 10.375 10.6875 10.375 12 13 C11.67 13.66 11.34 14.32 11 15 C9.5369343 13.25395451 8.0797192 11.50300547 6.625 9.75 C5.81289062 8.77546875 5.00078125 7.8009375 4.1640625 6.796875 C2.42148243 4.5447318 1.123584 2.59288614 0 0 Z " fill="#1B1B1C" transform="translate(140,70)"/>
<path d="M0 0 C1.32 0.66 2.64 1.32 4 2 C4 2.66 4 3.32 4 4 C4.99 4.33 5.98 4.66 7 5 C8.58965571 7.21701147 9.72327486 9.57862473 11 12 C8.00675737 10.9024777 7.15389099 10.32317108 5.75 7.375 C5.5025 6.59125 5.255 5.8075 5 5 C4.34 5 3.68 5 3 5 C2.34 4.34 1.68 3.68 1 3 C0.34 3 -0.32 3 -1 3 C-0.67 2.01 -0.34 1.02 0 0 Z " fill="#141414" transform="translate(77,132)"/>
<path d="M0 0 C2.7427943 1.37139715 3.03327692 3.27857822 4.13671875 6.01171875 C5.50456698 9.16210224 7.25190639 12.04632459 9 15 C8.34 15 7.68 15 7 15 C7 14.34 7 13.68 7 13 C6.01 12.67 5.02 12.34 4 12 C2.61328125 9.49609375 2.61328125 9.49609375 1.3125 6.4375 C0.87550781 5.42558594 0.43851562 4.41367188 -0.01171875 3.37109375 C-0.33785156 2.58863281 -0.66398437 1.80617188 -1 1 C-0.67 0.67 -0.34 0.34 0 0 Z " fill="#0F0F10" transform="translate(85,99)"/>
<path d="M0 0 C4.9723422 1.49170266 9.41845739 3.60457417 14 6 C10.85497566 7.00776049 10.24912833 7.11131266 7.0625 5.6875 C6.051875 5.130625 5.04125 4.57375 4 4 C2.34089996 3.31471955 0.67667436 2.64108137 -1 2 C-0.67 1.34 -0.34 0.68 0 0 Z " fill="#0E0E0E" transform="translate(178,55)"/>
<path d="M0 0 C0.66 0 1.32 0 2 0 C0.58465326 4.83576801 -1.3365317 8.75509739 -4 13 C-4.99 13.495 -4.99 13.495 -6 14 C-5.41892368 10.2397015 -4.34800504 7.46964968 -2.4375 4.1875 C-1.98246094 3.39730469 -1.52742188 2.60710937 -1.05859375 1.79296875 C-0.53458984 0.90544922 -0.53458984 0.90544922 0 0 Z " fill="#0E0E0E" transform="translate(45,189)"/>
<path d="M0 0 C-1.57967807 0.67528223 -3.16391903 1.33989694 -4.75 2 C-6.07257813 2.556875 -6.07257813 2.556875 -7.421875 3.125 C-10 4 -10 4 -14 4 C-13.67 3.01 -13.34 2.02 -13 1 C-11.07421875 0.234375 -11.07421875 0.234375 -8.6875 -0.25 C-7.90761719 -0.42015625 -7.12773438 -0.5903125 -6.32421875 -0.765625 C-3.92348133 -1.00771617 -2.28190412 -0.7310448 0 0 Z " fill="#171718" transform="translate(113,120)"/>
<path d="M0 0 C0 0.66 0 1.32 0 2 C-1.32 2.33 -2.64 2.66 -4 3 C-4 3.66 -4 4.32 -4 5 C-8.38461538 8 -8.38461538 8 -11 8 C-11 8.66 -11 9.32 -11 10 C-11.66 9.67 -12.32 9.34 -13 9 C-4.5 0 -4.5 0 0 0 Z " fill="#1D1D1D" transform="translate(111,43)"/>
<path d="M0 0 C0.66 0.66 1.32 1.32 2 2 C-1.49359465 5.59634744 -5.11098131 8.83451967 -9 12 C-7.55575365 8.76138697 -5.74227753 6.38030837 -3.375 3.75 C-2.74335938 3.04359375 -2.11171875 2.3371875 -1.4609375 1.609375 C-0.97882813 1.07828125 -0.49671875 0.5471875 0 0 Z " fill="#0F0F0F" transform="translate(143,141)"/>
<path d="M0 0 C4.55015893 1.51671964 6.50057264 5.16891053 9 9 C8.67 9.66 8.34 10.32 8 11 C7.34 9.68 6.68 8.36 6 7 C5.34 7 4.68 7 4 7 C0 2.52941176 0 2.52941176 0 0 Z " fill="#0F0F0F" transform="translate(64,115)"/>
<path d="M0 0 C0.66 0.33 1.32 0.66 2 1 C2 2.65 2 4.3 2 6 C-3.75 9 -3.75 9 -6 9 C-6 8.34 -6 7.68 -6 7 C-4.7934375 6.6596875 -4.7934375 6.6596875 -3.5625 6.3125 C-2.716875 5.879375 -1.87125 5.44625 -1 5 C-0.10613836 2.45224694 -0.10613836 2.45224694 0 0 Z " fill="#171717" transform="translate(120,111)"/>
<path d="M0 0 C0.66 0 1.32 0 2 0 C0 4 -2 8 -4 12 C-4.66 12 -5.32 12 -6 12 C-4.43358249 7.69235185 -2.31663844 3.93828536 0 0 Z " fill="#121112" transform="translate(72,141)"/>
<path d="M0 0 C-1.45537568 0.83848804 -2.91440373 1.67063934 -4.375 2.5 C-5.59316406 3.19609375 -5.59316406 3.19609375 -6.8359375 3.90625 C-9 5 -9 5 -11 5 C-11 4.34 -11 3.68 -11 3 C-10.34 3 -9.68 3 -9 3 C-8.67 2.01 -8.34 1.02 -8 0 C-4.71303767 -0.79953138 -3.28976808 -1.09658936 0 0 Z " fill="#171718" transform="translate(105,75)"/>
<path d="M0 0 C2 1.3125 2 1.3125 4 3 C4 3.99 4 4.98 4 6 C2.68 5.67 1.36 5.34 0 5 C0 4.34 0 3.68 0 3 C-0.66 3 -1.32 3 -2 3 C-2 2.34 -2 1.68 -2 1 C-1.34 0.67 -0.68 0.34 0 0 Z " fill="#47474B" transform="translate(225,197)"/>
<path d="M0 0 C2.50298434 2.93828597 3.46930939 5.17902761 4 9 C1.47411298 6.63707344 0.11179163 5.33537489 -1 2 C-0.67 1.34 -0.34 0.68 0 0 Z " fill="#0D0D0D" transform="translate(209,98)"/>
<path d="M0 0 C1.5625 1.8125 1.5625 1.8125 3 4 C2.67 4.99 2.34 5.98 2 7 C-0.2477975 4.94766315 -1.0022242 3.99332739 -2 1 C-1.34 0.67 -0.68 0.34 0 0 Z " fill="#09090B" transform="translate(202,83)"/>
</svg>
