<?xml version="1.0" encoding="UTF-8"?>
<svg version="1.1" xmlns="http://www.w3.org/2000/svg" width="267" height="237">
<path d="M0 0 C1.14750732 0.53560547 2.29501465 1.07121094 3.47729492 1.62304688 C4.42202164 2.05689697 4.42202164 2.05689697 5.38583374 2.49951172 C7.41567685 3.43483067 9.43651801 4.38806148 11.45776367 5.34179688 C12.8579365 5.9909325 14.25873822 6.63871329 15.66015625 7.28515625 C18.41445787 8.55669595 21.16604165 9.83384094 23.91577148 11.11523438 C28.5257206 13.25747228 33.17554513 15.3048476 37.83276367 17.34179688 C40.44067337 18.50023048 43.04392811 19.66868655 45.64526367 20.84179688 C46.84666992 21.38191406 48.04807617 21.92203125 49.28588867 22.47851562 C50.37385742 22.99027344 51.46182617 23.50203125 52.58276367 24.02929688 C53.49928711 24.45597656 54.41581055 24.88265625 55.36010742 25.32226562 C64.09919712 31.13338681 68.28788601 47.5007963 72.73822021 56.92602539 C73.64547703 58.84224751 74.55905728 60.75534729 75.47387695 62.66796875 C77.22604468 66.33806294 78.93743061 70.02586083 80.64526367 73.71679688 C81.19174561 74.85648926 81.73822754 75.99618164 82.30126953 77.17041016 C83.02842163 78.76731689 83.02842163 78.76731689 83.77026367 80.39648438 C84.2059668 81.32960449 84.64166992 82.26272461 85.09057617 83.22412109 C85.64526367 85.84179688 85.64526367 85.84179688 84.49560547 88.43457031 C82.73901443 90.71983059 80.95855963 92.77197753 78.91479492 94.80273438 C78.19356445 95.52203125 77.47233398 96.24132812 76.72924805 96.98242188 C75.9796582 97.71976562 75.23006836 98.45710938 74.45776367 99.21679688 C73.72750977 99.94640625 72.99725586 100.67601562 72.24487305 101.42773438 C68.099309 105.54025141 63.85984915 109.49384191 59.43334961 113.30249023 C56.63258711 115.71357811 54.07274764 118.04085384 51.64526367 120.84179688 C51.91787071 124.20734776 53.31980697 125.88803061 55.66113281 128.21411133 C56.29592056 128.85190018 56.93070831 129.48968903 57.58473206 130.14680481 C58.27630905 130.826035 58.96788605 131.5052652 59.68041992 132.20507812 C60.74854164 133.27039009 60.74854164 133.27039009 61.83824158 134.35722351 C63.34879253 135.86104977 64.86293806 137.36127268 66.38037109 138.8581543 C68.6814246 141.12831145 70.97188296 143.40871702 73.26049805 145.69140625 C74.73318998 147.15491635 76.20647902 148.6178259 77.68041992 150.08007812 C78.3578273 150.75323563 79.03523468 151.42639313 79.73316956 152.11994934 C83.71771353 156.04621287 87.79463021 159.70957105 92.17527771 163.1927948 C93.64526367 164.84179688 93.64526367 164.84179688 93.64526367 168.84179688 C86.88570285 169.11649601 80.38672582 168.05345418 73.70776367 167.09179688 C58.64275079 164.9958443 43.54263336 163.4543736 28.40348816 162.00354004 C25.26331245 161.70026512 22.12407387 161.38803953 18.98504639 161.07312012 C17.39307545 160.91572949 15.80063911 160.76299204 14.20782471 160.61437988 C11.84829579 160.39283953 9.49103102 160.15430916 7.13354492 159.91210938 C6.42175583 159.84909637 5.70996674 159.78608337 4.97660828 159.72116089 C2.23746631 159.42610124 0.08172839 159.126438 -2.24975586 157.60595703 C-3.7120029 155.27140177 -4.08575784 153.26442587 -4.52270508 150.54492188 C-4.69350586 149.50335938 -4.86430664 148.46179688 -5.0402832 147.38867188 C-5.20592773 146.30070313 -5.37157227 145.21273437 -5.54223633 144.09179688 C-5.71948242 143.01929688 -5.89672852 141.94679687 -6.0793457 140.84179688 C-8.35443484 126.5763731 -8.35443484 126.5763731 -6.17504883 122.79492188 C-5.33586914 121.951875 -5.33586914 121.951875 -4.47973633 121.09179688 C-3.84293945 120.42664063 -3.20614258 119.76148438 -2.55004883 119.07617188 C-1.8255957 118.33882813 -1.10114258 117.60148437 -0.35473633 116.84179688 C1.31803923 115.01403572 2.98441985 113.18040686 4.64526367 111.34179688 C5.5037793 110.39949219 6.36229492 109.4571875 7.24682617 108.48632812 C11.42636668 103.87794226 15.50371762 99.18815366 19.53198242 94.44726562 C20.05421387 93.83407471 20.57644531 93.22088379 21.11450195 92.58911133 C22.14780848 91.37482574 23.17887418 90.15862834 24.20727539 88.94018555 C24.69341309 88.36888916 25.17955078 87.79759277 25.68041992 87.20898438 C26.1601123 86.64405273 26.63980469 86.07912109 27.1340332 85.49707031 C28.68831804 83.79463878 30.35558146 82.3159262 32.07885742 80.78710938 C34.92188226 78.11853305 34.92188226 78.11853305 34.86401367 74.88476562 C33.27346793 70.91349917 31.01936967 68.27746871 28.14526367 65.15429688 C27.04275327 63.91295062 25.941199 62.67075453 24.84057617 61.42773438 C24.295625 60.81897461 23.75067383 60.21021484 23.18920898 59.58300781 C14.04109616 49.2660659 5.53397559 38.14895062 -2.35473633 26.84179688 C-5.83556424 27.52481187 -8.57615855 28.90895823 -11.67895508 30.60742188 C-12.70827148 31.16816406 -13.73758789 31.72890625 -14.7980957 32.30664062 C-15.86866211 32.89574219 -16.93922852 33.48484375 -18.04223633 34.09179688 C-19.0934668 34.66542969 -20.14469727 35.2390625 -21.2277832 35.83007812 C-23.303822 36.96434201 -25.37475097 38.10801389 -27.44018555 39.26147461 C-29.26672191 40.25185573 -31.12064464 41.19486468 -33.00756836 42.06469727 C-37.27543841 44.09434713 -39.68470205 45.59152413 -41.51098633 50.05664062 C-41.99342262 51.62062567 -42.44107065 53.19573295 -42.85473633 54.77929688 C-43.09192383 55.56498047 -43.32911133 56.35066406 -43.57348633 57.16015625 C-44.80061224 61.32610927 -45.93414585 65.51102928 -46.35473633 69.84179688 C-44.81431372 72.27369859 -44.81431372 72.27369859 -42.35473633 74.84179688 C-40.59000628 77.45621176 -38.8566694 80.08882698 -37.13598633 82.73242188 C-35.55041765 84.87642331 -35.55041765 84.87642331 -33.62036133 85.75976562 C-30.115897 85.8866514 -26.93481645 84.87688171 -23.60473633 83.90429688 C-22.90735352 83.70900391 -22.2099707 83.51371094 -21.49145508 83.3125 C-19.77674659 82.83097228 -18.06538756 82.3375453 -16.35473633 81.84179688 C-14.92148496 75.69929103 -13.81051155 69.59065399 -12.91723633 63.34570312 C-12.35473633 60.84179688 -12.35473633 60.84179688 -10.35473633 58.84179688 C-8.14724839 58.21763038 -5.91211231 57.68915123 -3.66723633 57.21679688 C-2.46711914 56.95640625 -1.26700195 56.69601563 -0.03051758 56.42773438 C3.59752918 55.84940599 6.97864596 55.7382467 10.64526367 55.84179688 C10.92971649 63.78164258 10.08546983 71.37387124 8.89526367 79.21679688 C8.73799805 80.37824219 8.58073242 81.5396875 8.41870117 82.73632812 C8.25112305 83.85136719 8.08354492 84.96640625 7.91088867 86.11523438 C7.76425781 87.11989746 7.61762695 88.12456055 7.46655273 89.15966797 C6.2667882 93.07780507 4.40464837 94.84769138 0.85189819 96.85510254 C-1.37093643 97.97800784 -3.61749731 99.02835741 -5.88208008 100.06445312 C-6.70801163 100.45120712 -7.53394318 100.83796112 -8.38490295 101.23643494 C-11.01693959 102.46727697 -13.65423633 103.68629542 -16.29223633 104.90429688 C-18.92564937 106.12792483 -21.55787561 107.35402514 -24.18885803 108.58287048 C-25.82332684 109.34545671 -27.45935967 110.10470228 -29.09715271 110.86012268 C-31.19335736 111.83387243 -33.27391319 112.83575356 -35.35473633 113.84179688 C-36.31814941 114.2779834 -37.2815625 114.71416992 -38.27416992 115.16357422 C-41.33494091 117.6324477 -41.53586096 119.97436136 -42.30395508 123.78320312 C-42.44750931 124.46551498 -42.59106354 125.14782684 -42.7389679 125.85081482 C-43.19306335 128.03180642 -43.61796415 130.21732939 -44.04223633 132.40429688 C-44.33785465 133.84804818 -44.63536282 135.2914139 -44.93481445 136.734375 C-45.98218574 141.82197102 -47.02386672 146.90841644 -47.90014648 152.02880859 C-48.05660645 152.92486816 -48.21306641 153.82092773 -48.37426758 154.74414062 C-48.49519775 155.50073975 -48.61612793 156.25733887 -48.74072266 157.03686523 C-49.35473633 158.84179688 -49.35473633 158.84179688 -52.35473633 160.84179688 C-54.27201843 161.38601685 -54.27201843 161.38601685 -56.45898438 161.80322266 C-57.68992073 162.04324509 -57.68992073 162.04324509 -58.94572449 162.28811646 C-59.82706558 162.45278412 -60.70840668 162.61745178 -61.61645508 162.78710938 C-62.52224808 162.96184784 -63.42804108 163.1365863 -64.36128235 163.31661987 C-67.25374819 163.87308693 -70.14791955 164.42004726 -73.04223633 164.96679688 C-75.00394463 165.34247413 -76.96553482 165.71876871 -78.92700195 166.09570312 C-83.73490564 167.01823587 -88.54436044 167.93224679 -93.35473633 168.84179688 C-94.5344823 164.35664951 -93.9375442 162.37467284 -91.59912109 158.32446289 C-90.95221313 157.25023071 -90.95221313 157.25023071 -90.29223633 156.15429688 C-89.36021247 154.54627378 -88.43067277 152.93680916 -87.50317383 151.32617188 C-86.74278809 150.01422852 -86.74278809 150.01422852 -85.96704102 148.67578125 C-83.00944095 143.47714079 -80.22791989 138.18333962 -77.41723633 132.90429688 C-72.68588709 124.03665531 -67.82671177 115.27445533 -62.55419922 106.71508789 C-60.85889274 103.88893311 -59.50148714 101.45648895 -58.73364258 98.24023438 C-59.69861587 94.51385954 -62.13330713 92.05607427 -64.66723633 89.27929688 C-66.14064526 87.61577066 -67.61169538 85.95041933 -69.07592773 84.27880859 C-70.090805 83.1383795 -71.1442734 82.03231361 -72.21020508 80.93945312 C-75.04305799 75.74750087 -73.13766737 68.58737382 -71.88598633 63.08789062 C-71.72739136 62.38334244 -71.56879639 61.67879425 -71.40539551 60.95289612 C-71.06748264 59.47530515 -70.72435796 57.99889709 -70.3762207 56.52368164 C-69.85646222 54.28672484 -69.37911875 52.04317406 -68.90161133 49.796875 C-67.23924866 42.45251021 -65.74277944 36.63668867 -59.30932617 32.05981445 C-58.66431152 31.65786865 -58.01929688 31.25592285 -57.35473633 30.84179688 C-56.44852539 30.16375 -55.54231445 29.48570313 -54.60864258 28.78710938 C-53.72047852 28.18640625 -52.83231445 27.58570312 -51.91723633 26.96679688 C-51.40064453 26.61512451 -50.88405273 26.26345215 -50.35180664 25.90112305 C-49.11815327 25.06219081 -47.88281591 24.22573208 -46.64624023 23.39111328 C-43.85000718 21.50054276 -41.06141714 19.59891222 -38.27270508 17.69726562 C-26.53814448 9.69919872 -26.53814448 9.69919872 -22.2043457 6.78564453 C-20.39293349 5.5499982 -18.59983141 4.28672833 -16.83325195 2.98779297 C-16.07206055 2.43816895 -15.31086914 1.88854492 -14.52661133 1.32226562 C-13.88304688 0.84039795 -13.23948242 0.35853027 -12.57641602 -0.13793945 C-8.23254037 -2.13278081 -4.41227722 -1.52331294 0 0 Z " fill="#D8D7D6" transform="translate(135.354736328125,32.158203125)"/>
<path d="M0 0 C2.38107781 0.98972511 3.67307733 2.13070721 5.47967529 3.96792603 C6.1342572 4.62596222 6.78883911 5.28399841 7.46325684 5.9619751 C8.16122375 6.67856293 8.85919067 7.39515076 9.57830811 8.13345337 C10.30834045 8.87010223 11.0383728 9.6067511 11.79052734 10.36572266 C14.12802084 12.72663287 16.45516439 15.09742415 18.78143311 17.46939087 C21.09504801 19.81825074 23.41083476 22.16490668 25.72949219 24.50878906 C27.17091602 25.9669672 28.60922903 27.42822962 30.04382324 28.89312744 C34.03231429 32.93995582 38.10835983 36.67686018 42.56542969 40.20678711 C44.03143311 41.84439087 44.03143311 41.84439087 44.03143311 45.84439087 C41.03143311 44.84439087 41.03143311 44.84439087 39.03143311 41.84439087 C37.19661621 40.92625143 37.19661621 40.92625143 34.96893311 40.21939087 C29.09080121 38.01723358 23.68584194 35.10310078 18.18548584 32.10562134 C13.880807 29.77215063 9.55114165 27.74298489 5.03143311 25.84439087 C3.06495364 24.88168878 1.106239 23.90292992 -0.84356689 22.90689087 C-5.82184214 20.39267377 -10.84422465 18.04423476 -15.96856689 15.84439087 C-14.29214365 11.59124301 -11.25097599 8.72337273 -8.09356689 5.53189087 C-7.56376221 4.96921509 -7.03395752 4.40653931 -6.48809814 3.82681274 C-2.51656114 -0.19892638 -2.51656114 -0.19892638 0 0 Z " fill="#575756" transform="translate(184.96856689453125,155.15560913085938)"/>
<path d="M0 0 C0.28445282 7.93984571 -0.55979385 15.53207437 -1.75 23.375 C-1.90726563 24.53644531 -2.06453125 25.69789062 -2.2265625 26.89453125 C-2.47792969 28.56708984 -2.47792969 28.56708984 -2.734375 30.2734375 C-2.88100586 31.27810059 -3.02763672 32.28276367 -3.17871094 33.31787109 C-4.38185611 37.24704853 -6.66462111 39.15021343 -10.0625 41.3125 C-12 42 -12 42 -15 41 C-14.071875 40.4225 -13.14375 39.845 -12.1875 39.25 C-8.04368573 36.32495463 -6.34189384 34.63835433 -5.29223633 29.60839844 C-5.12619244 28.27690629 -4.9734776 26.94370436 -4.83203125 25.609375 C-4.74749191 24.90476135 -4.66295258 24.20014771 -4.57585144 23.47418213 C-4.30976543 21.23397119 -4.06091547 18.99223219 -3.8125 16.75 C-3.63459902 15.22642949 -3.45557495 13.70298966 -3.27539062 12.1796875 C-2.83723682 8.45451334 -2.41452494 4.7278744 -2 1 C-5.3 1.66 -8.6 2.32 -12 3 C-12 2.34 -12 1.68 -12 1 C-7.9472484 0.01751476 -4.16138263 -0.08159574 0 0 Z " fill="#C8C5C6" transform="translate(146,88)"/>
<path d="M0 0 C0.86625 0.5259375 0.86625 0.5259375 1.75 1.0625 C4.35801776 2.14917407 5.39417629 1.93065133 8 1 C13 6.75 13 6.75 13 9 C13.99 9 14.98 9 16 9 C16.33 8.34 16.66 7.68 17 7 C18.65 8.65 20.3 10.3 22 12 C21.67 12.99 21.34 13.98 21 15 C18 14 18 14 16 11 C13.86351526 9.90858009 13.86351526 9.90858009 11.375 9.0625 C6.7345295 7.31557869 2.40041646 5.28169743 -2 3 C-1.34 2.67 -0.68 2.34 0 2 C0 1.34 0 0.68 0 0 Z " fill="#626262" transform="translate(208,186)"/>
<path d="M0 0 C4.61010288 0.85616196 7.07089374 3.62744408 10.25 6.875 C10.80429688 7.41769531 11.35859375 7.96039063 11.9296875 8.51953125 C16 12.61991995 16 12.61991995 16 16 C14.1875 15.8125 14.1875 15.8125 12 15 C10.9935725 13.33720673 9.99414593 11.67016516 9 10 C7.34738161 8.97695052 5.68208635 7.97383946 4 7 C3.67 6.01 3.34 5.02 3 4 C2.01979625 2.9805881 1.02196992 1.97753644 0 1 C0 0.67 0 0.34 0 0 Z " fill="#4F4C4E" transform="translate(185,157)"/>
<path d="M0 0 C0.66 0.33 1.32 0.66 2 1 C1.3125 3.4375 1.3125 3.4375 0 6 C-2.375 6.625 -2.375 6.625 -5 7 C-6.36538653 7.95577057 -7.69481525 8.96352976 -9 10 C-11.29143388 11.4811746 -13.56835206 12.73914551 -16 14 C-16.66 13.67 -17.32 13.34 -18 13 C-16.12653773 11.58126158 -14.25129507 10.16498375 -12.375 8.75 C-11.33085938 7.96109375 -10.28671875 7.1721875 -9.2109375 6.359375 C-6.19048106 4.13996419 -3.13456083 2.05205484 0 0 Z " fill="#CFCCCC" transform="translate(110,41)"/>
<path d="M0 0 C0.66 0.33 1.32 0.66 2 1 C-0.61691164 3.67470955 -3.24481708 6.33834481 -5.875 9 C-6.62136719 9.763125 -7.36773437 10.52625 -8.13671875 11.3125 C-8.85214844 12.034375 -9.56757813 12.75625 -10.3046875 13.5 C-11.2944458 14.50546875 -11.2944458 14.50546875 -12.30419922 15.53125 C-14 17 -14 17 -16 17 C-14.68066111 13.437785 -12.52100188 11.61954417 -9.5859375 9.29296875 C-7.21929442 7.36351343 -5.12815341 5.18567107 -3 3 C-2 2 -1 1 0 0 Z " fill="#CECACA" transform="translate(218,120)"/>
<path d="M0 0 C0.66 0 1.32 0 2 0 C3.35275588 1.72461735 4.63334715 3.50624651 5.875 5.3125 C8.31036496 8.85442813 10.38918087 11.62786995 14 14 C13.67 15.32 13.34 16.64 13 18 C11.58298411 16.2711195 10.16640314 14.54188254 8.75 12.8125 C7.96109375 11.84957031 7.1721875 10.88664062 6.359375 9.89453125 C5.19148437 8.46173828 5.19148437 8.46173828 4 7 C3.24203125 6.09636719 2.4840625 5.19273438 1.703125 4.26171875 C0 2 0 2 0 0 Z " fill="#C9C6C5" transform="translate(141,68)"/>
<path d="M0 0 C0.66 0 1.32 0 2 0 C1.67 5.61 1.34 11.22 1 17 C-0.32 17.33 -1.64 17.66 -3 18 C-2.86722656 17.3709375 -2.73445313 16.741875 -2.59765625 16.09375 C-1.49250818 10.73741189 -0.60395788 5.43562094 0 0 Z " fill="#CAC6C6" transform="translate(122,97)"/>
<path d="M0 0 C0.66 0 1.32 0 2 0 C0.76746392 4.07685011 -0.74850309 7.39760494 -3 11 C-4.0150089 12.99242489 -5.01873444 14.99074195 -6 17 C-6.66 17 -7.32 17 -8 17 C-6.3341708 10.83643195 -3.12194714 5.51740344 0 0 Z " fill="#CDCAC9" transform="translate(64,154)"/>
<path d="M0 0 C0.99 0.33 1.98 0.66 3 1 C-2.28 3.97 -7.56 6.94 -13 10 C-13 9.01 -13 8.02 -13 7 C-12.01 6.67 -11.02 6.34 -10 6 C-9.34 5.01 -8.68 4.02 -8 3 C-5.6859378 2.26924352 -3.35171131 1.59861742 -1 1 C-0.67 0.67 -0.34 0.34 0 0 Z " fill="#CDCBCB" transform="translate(118,63)"/>
<path d="M0 0 C1.32 0 2.64 0 4 0 C4 0.66 4 1.32 4 2 C4.99 2 5.98 2 7 2 C7.33 1.34 7.66 0.68 8 0 C9.65 1.65 11.3 3.3 13 5 C12.67 5.99 12.34 6.98 12 8 C9 7 9 7 7 4 C4.69855891 2.92863949 2.3659787 1.92010283 0 1 C0 0.67 0 0.34 0 0 Z " fill="#7F7B7E" transform="translate(217,193)"/>
<path d="M0 0 C0.825 0.165 1.65 0.33 2.5 0.5 C6.41272317 1.05896045 10.05183173 1.06807187 14 1 C14 1.33 14 1.66 14 2 C11.58525383 2.53160457 9.16891893 3.05054766 6.75 3.5625 C5.72712891 3.78969727 5.72712891 3.78969727 4.68359375 4.02148438 C1.18230962 4.75233495 -1.60298173 5.32203546 -5 4 C-3.35 3.34 -1.7 2.68 0 2 C0 1.34 0 0.68 0 0 Z " fill="#CBCAC9" transform="translate(48,195)"/>
<path d="M0 0 C2.91271644 1.34680915 5.29328277 2.87448745 7.75 4.9375 C8.67039063 5.69353516 8.67039063 5.69353516 9.609375 6.46484375 C11 8 11 8 11 11 C10.01 11 9.02 11 8 11 C5.9375 8.625 5.9375 8.625 4 6 C3.34 5.34 2.68 4.68 2 4 C1.30251417 2.68252676 0.63040043 1.35085807 0 0 Z " fill="#4D4B4C" transform="translate(213,184)"/>
<path d="M0 0 C-0.309375 0.7425 -0.61875 1.485 -0.9375 2.25 C-2.91931489 7.37940323 -2.95666108 10.47262487 -2 16 C-2.66 16 -3.32 16 -4 16 C-5.19148233 11.0851354 -6.19644886 6.12097752 -3.625 1.5625 C-2 0 -2 0 0 0 Z " fill="#C9C6C7" transform="translate(133,153)"/>
<path d="M0 0 C0 3 0 3 -1.49609375 4.75390625 C-2.45708984 5.64916016 -2.45708984 5.64916016 -3.4375 6.5625 C-6.0896163 9.00289429 -6.0896163 9.00289429 -8 12 C-8.99 12 -9.98 12 -11 12 C-10.67 11.01 -10.34 10.02 -10 9 C-9.34 9 -8.68 9 -8 9 C-7.67 8.01 -7.34 7.02 -7 6 C-5.37109375 4.39453125 -5.37109375 4.39453125 -3.4375 2.8125 C-2.79683594 2.28269531 -2.15617188 1.75289062 -1.49609375 1.20703125 C-1.00238281 0.80871094 -0.50867188 0.41039062 0 0 Z " fill="#C6C3C4" transform="translate(194,143)"/>
<path d="M0 0 C-1.76371818 1.03307771 -3.53625033 2.05112049 -5.3125 3.0625 C-6.79169922 3.91521484 -6.79169922 3.91521484 -8.30078125 4.78515625 C-11 6 -11 6 -14 5 C-10.63156097 2.05261585 -4.40469071 -2.20234535 0 0 Z " fill="#C9C8C7" transform="translate(111,140)"/>
<path d="M0 0 C-1.76371818 1.03307771 -3.53625033 2.05112049 -5.3125 3.0625 C-6.79169922 3.91521484 -6.79169922 3.91521484 -8.30078125 4.78515625 C-11 6 -11 6 -14 5 C-13.34 5 -12.68 5 -12 5 C-11.67 4.01 -11.34 3.02 -11 2 C-9.00390625 1.015625 -9.00390625 1.015625 -6.5625 0.25 C-5.75941406 -0.01296875 -4.95632812 -0.2759375 -4.12890625 -0.546875 C-2 -1 -2 -1 0 0 Z " fill="#CCC7C9" transform="translate(128,132)"/>
<path d="M0 0 C4.21779303 1.50635465 5.7747674 4.24012422 8 8 C8.33 8.99 8.66 9.98 9 11 C8.34 11 7.68 11 7 11 C5.2734375 9.1015625 5.2734375 9.1015625 3.375 6.625 C2.42753906 5.40683594 2.42753906 5.40683594 1.4609375 4.1640625 C0 2 0 2 0 0 Z " fill="#CAC6C7" transform="translate(163,95)"/>
<path d="M0 0 C0.66 0.33 1.32 0.66 2 1 C0.515 6.445 0.515 6.445 -1 12 C-1.66 11.67 -2.32 11.34 -3 11 C-2.32829194 7.1936543 -1.27253436 3.64793184 0 0 Z " fill="#CFCBCC" transform="translate(89,90)"/>
<path d="M0 0 C0.66 0 1.32 0 2 0 C1.71125 0.70125 1.4225 1.4025 1.125 2.125 C-0.0628193 5.03060307 -0.0628193 5.03060307 -0.9375 8.25 C-1.288125 9.1575 -1.63875 10.065 -2 11 C-2.99 11.33 -3.98 11.66 -5 12 C-3.68938409 7.76570244 -2.05643741 3.92592596 0 0 Z " fill="#CCCAC9" transform="translate(54,172)"/>
<path d="M0 0 C2.375 0.6875 2.375 0.6875 5 2 C6.56938028 4.91456338 7 6.67941669 7 10 C6.34 10 5.68 10 5 10 C1.125 3.375 1.125 3.375 0 0 Z " fill="#CDCAC9" transform="translate(72,121)"/>
<path d="M0 0 C0.66 0 1.32 0 2 0 C3.38938077 1.96147874 4.7260411 3.96166576 6 6 C5.67 6.66 5.34 7.32 5 8 C4.5875 7.54625 4.175 7.0925 3.75 6.625 C1.93591905 4.94049626 0.24714373 4.00734029 -2 3 C-1.34 2.01 -0.68 1.02 0 0 Z " fill="#D1CECE" transform="translate(91,107)"/>
<path d="M0 0 C0.99 0.33 1.98 0.66 3 1 C2.34 1 1.68 1 1 1 C0.67 2.65 0.34 4.3 0 6 C-0.66 6 -1.32 6 -2 6 C-2.66 7.65 -3.32 9.3 -4 11 C-4.33 10.34 -4.66 9.68 -5 9 C-4.00390625 6.8359375 -4.00390625 6.8359375 -2.5625 4.375 C-2.08941406 3.55773437 -1.61632812 2.74046875 -1.12890625 1.8984375 C-0.75636719 1.27195313 -0.38382812 0.64546875 0 0 Z " fill="#CCCAC9" transform="translate(71,142)"/>
<path d="M0 0 C0.66 0.33 1.32 0.66 2 1 C0.68 3.31 -0.64 5.62 -2 8 C-2.66 8 -3.32 8 -4 8 C-4 8.66 -4 9.32 -4 10 C-4.99 10.33 -5.98 10.66 -7 11 C-5.54682061 7.6092481 -3.58699688 5.58699688 -1 3 C-0.67 2.01 -0.34 1.02 0 0 Z " fill="#CCCACB" transform="translate(171,107)"/>
<path d="M0 0 C0.66 0.33 1.32 0.66 2 1 C0.68 4.96 -0.64 8.92 -2 13 C-2.33 13 -2.66 13 -3 13 C-3.31563182 7.73946963 -2.66590937 4.55426184 0 0 Z " fill="#C6C3C4" transform="translate(94,77)"/>
<path d="M0 0 C0.33 0 0.66 0 1 0 C0.88490339 1.41750563 0.75746342 2.83401169 0.625 4.25 C0.55539063 5.03890625 0.48578125 5.8278125 0.4140625 6.640625 C-0.01507113 9.085877 -0.78600638 10.84836903 -2 13 C-2.05447047 11.58376784 -2.09300508 10.16691809 -2.125 8.75 C-2.14820312 7.96109375 -2.17140625 7.1721875 -2.1953125 6.359375 C-1.9828378 3.79268059 -1.28654105 2.2083933 0 0 Z " fill="#CCC9C9" transform="translate(90,163)"/>
<path d="M0 0 C2.00047023 2.54605302 3.82572785 4.9664636 5 8 C4.67 8.99 4.34 9.98 4 11 C0.85041169 7.57653445 0.43820891 4.55737263 0 0 Z " fill="#CDCCCA" transform="translate(204,83)"/>
<path d="M0 0 C0.33 0.99 0.66 1.98 1 3 C-0.65 4.32 -2.3 5.64 -4 7 C-4.66 6.67 -5.32 6.34 -6 6 C-4.02 4.02 -2.04 2.04 0 0 Z " fill="#D0CFCD" transform="translate(154,128)"/>
<path d="M0 0 C0.99 0.33 1.98 0.66 3 1 C0.6875 3.0625 0.6875 3.0625 -2 5 C-2.99 4.67 -3.98 4.34 -5 4 C-2.6875 1.9375 -2.6875 1.9375 0 0 Z " fill="#D4D0D1" transform="translate(125,31)"/>
</svg>
